<svg width="95" height="15" viewBox="0 0 95 15" fill="none" xmlns="http://www.w3.org/2000/svg">
<path fill-rule="evenodd" clip-rule="evenodd" d="M5.11833 0L0 15H1.88343L7.01614 0H5.11833ZM8.43658 0V15H10.4063V0H8.43658ZM18.8922 15H16.9944L11.8761 0H13.7739L18.8922 15ZM27.9613 10.5034C27.9613 12.2931 28.7787 13.188 30.6648 13.188H33.5254V11.3512H31.1363C30.3347 11.3512 30.0675 11.0529 30.0675 10.2836V5.13425H33.4311V3.29743H30.0675V0.550049H27.9613V3.29743H25.4936V5.13425H27.9613V10.5034ZM39.4817 3.18786C36.5111 3.18786 34.4992 5.22878 34.4992 8.24305C34.4992 11.273 36.5111 13.2982 39.4817 13.2982C42.4366 13.2982 44.4642 11.273 44.4642 8.24305C44.4642 5.22878 42.4366 3.18786 39.4817 3.18786ZM39.4817 4.96189C41.1792 4.96189 42.3266 6.32773 42.3266 8.24305C42.3266 10.1584 41.1949 11.5242 39.4817 11.5242C37.7685 11.5242 36.6211 10.1584 36.6211 8.24305C36.6211 6.32773 37.7685 4.96189 39.4817 4.96189ZM55.3703 7.5502V13.1863H53.2641V7.73859C53.2641 5.98027 52.5096 5.02261 51.0165 5.02261C49.4447 5.02261 48.5016 6.16866 48.5016 8.06828V13.1863H46.4112V3.29568H48.2344L48.4702 4.58303C49.0675 3.81376 49.9948 3.17008 51.5037 3.17008C53.6099 3.18578 55.3703 4.33184 55.3703 7.5502ZM59.4766 3.49914C58.6592 3.49914 58.0462 4.09571 58.0462 4.91208C58.0462 5.72844 58.675 6.29362 59.4766 6.29362C60.2939 6.29362 60.9069 5.74414 60.9069 4.91208C60.9069 4.09571 60.2939 3.49914 59.4766 3.49914ZM59.4766 10.501C58.6592 10.501 58.0462 11.0976 58.0462 11.914C58.0462 12.746 58.675 13.2955 59.4766 13.2955C60.2939 13.2955 60.9069 12.746 60.9069 11.914C60.9069 11.0976 60.2939 10.501 59.4766 10.501ZM72.8331 11.3829V13.1883H71.7486C70.4597 13.1883 69.9725 12.6232 69.9568 11.6812C69.2966 12.6389 68.275 13.2982 66.7346 13.2982C64.597 13.2982 63.1039 12.2307 63.1039 10.4096C63.1039 8.36864 64.5499 7.23829 67.3005 7.23829H69.7524V6.64172C69.7524 5.54276 68.9666 4.86769 67.6148 4.86769C66.4046 4.86769 65.5872 5.44857 65.4301 6.31203H63.3396C63.5754 4.39671 65.1943 3.18786 67.6934 3.18786C70.3026 3.18786 71.8115 4.44381 71.8115 6.78301V10.7392C71.8115 11.2416 71.9844 11.3829 72.4245 11.3829H72.8331ZM69.7367 8.79253H67.1905C65.9173 8.79253 65.1943 9.27921 65.1943 10.284C65.1943 11.116 65.8859 11.6969 67.0176 11.6969C68.7151 11.6969 69.7367 10.6764 69.7367 9.18501V8.79253ZM78.7903 3.18786C75.8196 3.18786 73.8706 5.21308 73.8706 8.25875C73.8706 11.3515 75.7725 13.2982 78.7274 13.2982C81.2423 13.2982 82.9241 11.901 83.2856 9.65599H81.0851C80.8336 10.7863 79.9848 11.5242 78.7431 11.5242C77.0771 11.5242 75.9768 10.1898 75.9768 8.25875C75.9768 6.32773 77.0771 4.96189 78.7431 4.96189C80.0006 4.96189 80.8336 5.66836 81.1008 6.83011H83.2856C82.9083 4.6008 81.3208 3.18786 78.7903 3.18786ZM84.6403 8.25875C84.6403 5.21308 86.5893 3.18786 89.56 3.18786C92.0905 3.18786 93.678 4.6008 94.0553 6.83011H91.8705C91.6033 5.66836 90.7702 4.96189 89.5128 4.96189C87.8468 4.96189 86.7465 6.32773 86.7465 8.25875C86.7465 10.1898 87.8468 11.5242 89.5128 11.5242C90.7545 11.5242 91.6033 10.7863 91.8548 9.65599H94.0553C93.6937 11.901 92.012 13.2982 89.4971 13.2982C86.5422 13.2982 84.6403 11.3515 84.6403 8.25875Z" fill="white"/>
</svg>
